<svg width="60" height="48" viewBox="0 0 60 48" fill="none" xmlns="http://www.w3.org/2000/svg">
<g id="email 1" clip-path="url(#clip0_116_122)">
<g id="Group">
<g id="Group_2">
<path id="Vector" d="M52.6754 5.73535H7.33706C3.28988 5.73535 0 8.36726 0 11.605V36.3946C0 39.6323 3.28988 42.2642 7.33706 42.2642H52.6629C56.7101 42.2642 60 39.6323 60 36.3946V11.6149C60.0124 8.37719 56.7225 5.73535 52.6754 5.73535ZM56.6605 36.3946C56.6605 38.1525 54.8727 39.5826 52.6754 39.5826H7.33706C5.13966 39.5826 3.35196 38.1525 3.35196 36.3946V11.6149C3.35196 9.85701 5.13966 8.42685 7.33706 8.42685H52.6629C54.8603 8.42685 56.648 9.85701 56.648 11.6149V36.3946H56.6605Z" fill="white"/>
<path id="Vector_2" d="M37.8398 23.6917L52.5139 13.164C53.1967 12.6675 53.2588 11.8233 52.638 11.2671C52.0173 10.7208 50.9621 10.6712 50.2668 11.1678L30.031 25.6979L26.0831 22.8773C26.0707 22.8673 26.0583 22.8574 26.0583 22.8475C25.9714 22.778 25.8845 22.7184 25.7852 22.6588L9.7206 11.1578C9.02537 10.6613 7.97013 10.7109 7.3494 11.2671C6.72866 11.8233 6.79074 12.6675 7.48596 13.164L22.3339 23.7811L7.54803 34.8549C6.87764 35.3614 6.8404 36.2056 7.47354 36.7519C7.80874 37.03 8.25567 37.1789 8.70259 37.1789C9.11228 37.1789 9.52196 37.0598 9.84474 36.8214L24.8541 25.5886L28.9261 28.4986C29.2488 28.7271 29.6461 28.8363 30.0434 28.8363C30.4406 28.8363 30.8503 28.7171 31.1607 28.4887L35.3444 25.4893L50.2668 36.8313C50.5896 37.0796 51.0117 37.1988 51.4214 37.1988C51.8683 37.1988 52.3028 37.0598 52.638 36.7817C53.2712 36.2454 53.2464 35.3912 52.576 34.8847L37.8398 23.6917Z" fill="white"/>
</g>
</g>
</g>
<defs>
<clipPath id="clip0_116_122">
<rect width="60" height="48" fill="white"/>
</clipPath>
</defs>
</svg>
