<svg width="60" height="48" viewBox="0 0 60 48" fill="none" xmlns="http://www.w3.org/2000/svg">
<g id="email 1" clip-path="url(#clip0_142_223)">
<g id="Group">
<g id="Group_2">
<path id="Vector" d="M52.6754 5.7356H7.33706C3.28988 5.7356 0 8.3675 0 11.6052V36.3948C0 39.6326 3.28988 42.2645 7.33706 42.2645H52.6629C56.7101 42.2645 60 39.6326 60 36.3948V11.6152C60.0124 8.37743 56.7225 5.7356 52.6754 5.7356ZM56.6605 36.3948C56.6605 38.1527 54.8727 39.5829 52.6754 39.5829H7.33706C5.13966 39.5829 3.35196 38.1527 3.35196 36.3948V11.6152C3.35196 9.85726 5.13966 8.42709 7.33706 8.42709H52.6629C54.8603 8.42709 56.648 9.85726 56.648 11.6152V36.3948H56.6605Z" fill="#337AB7"/>
<path id="Vector_2" d="M37.8398 23.6922L52.5139 13.1645C53.1967 12.6679 53.2588 11.8238 52.638 11.2676C52.0173 10.7213 50.9621 10.6717 50.2668 11.1683L30.031 25.6984L26.0831 22.8778C26.0707 22.8678 26.0583 22.8579 26.0583 22.848C25.9714 22.7784 25.8845 22.7188 25.7852 22.6593L9.7206 11.1583C9.02537 10.6617 7.97013 10.7114 7.3494 11.2676C6.72866 11.8238 6.79074 12.6679 7.48596 13.1645L22.3339 23.7815L7.54803 34.8554C6.87764 35.3619 6.8404 36.2061 7.47354 36.7524C7.80874 37.0305 8.25567 37.1794 8.70259 37.1794C9.11228 37.1794 9.52196 37.0603 9.84474 36.8219L24.8541 25.5891L28.9261 28.4991C29.2488 28.7275 29.6461 28.8368 30.0434 28.8368C30.4406 28.8368 30.8503 28.7176 31.1607 28.4892L35.3444 25.4898L50.2668 36.8318C50.5896 37.0801 51.0117 37.1993 51.4214 37.1993C51.8683 37.1993 52.3028 37.0603 52.638 36.7822C53.2712 36.2459 53.2464 35.3917 52.576 34.8852L37.8398 23.6922Z" fill="#337AB7"/>
</g>
</g>
</g>
<defs>
<clipPath id="clip0_142_223">
<rect width="60" height="48" fill="white"/>
</clipPath>
</defs>
</svg>
