<svg width="48" height="48" viewBox="0 0 48 48" fill="none" xmlns="http://www.w3.org/2000/svg">
<g id="location-sign-svgrepo-com 1" clip-path="url(#clip0_116_110)">
<g id="Group">
<path id="Vector" d="M23.9991 0C14.8144 0 7.34229 7.47323 7.34229 16.6581C7.34229 25.4994 22.4553 46.1557 23.0988 47.0304L23.6994 47.8478C23.7696 47.9438 23.8814 48 23.9991 48C24.1186 48 24.2297 47.9438 24.3006 47.8478L24.9008 47.0304C25.5447 46.1557 40.6573 25.4994 40.6573 16.6581C40.6573 7.47323 33.184 0 23.9991 0ZM23.9991 10.6912C27.29 10.6912 29.966 13.3674 29.966 16.6581C29.966 19.9472 27.2899 22.6251 23.9991 22.6251C20.7101 22.6251 18.0322 19.9472 18.0322 16.6581C18.0322 13.3674 20.71 10.6912 23.9991 10.6912Z" fill="white"/>
</g>
</g>
<defs>
<clipPath id="clip0_116_110">
<rect width="48" height="48" fill="white"/>
</clipPath>
</defs>
</svg>
