<svg width="45" height="43" viewBox="0 0 45 43" fill="none" xmlns="http://www.w3.org/2000/svg">
<g id="phone 1">
<g clip-path="url(#clip0_116_114)">
<rect x="1" y="1" width="43" height="41" fill="#262525"/>
<g id="Group">
<g id="Group_2">
<path id="Vector" d="M34.9835 26.3981C34.1032 25.5241 33.0414 25.0568 31.916 25.0568C30.7997 25.0568 29.7288 25.5155 28.8122 26.3894L25.9444 29.1152C25.7084 28.9941 25.4725 28.8816 25.2456 28.7691C24.9189 28.6133 24.6103 28.4662 24.3471 28.3105C21.6608 26.6837 19.2195 24.5636 16.878 21.8205C15.7436 20.4533 14.9812 19.3024 14.4276 18.1342C15.1718 17.4852 15.8616 16.8102 16.5332 16.1612C16.7873 15.9189 17.0414 15.668 17.2955 15.4257C19.2013 13.6085 19.2013 11.2548 17.2955 9.43757L14.8179 7.07521C14.5366 6.80695 14.2461 6.53005 13.9739 6.25314C13.4293 5.71663 12.8576 5.16282 12.2677 4.64362C11.3874 3.8129 10.3346 3.37158 9.22742 3.37158C8.12021 3.37158 7.04931 3.8129 6.14177 4.64362C6.13269 4.65227 6.13269 4.65227 6.12362 4.66093L3.03797 7.62902C1.87631 8.73665 1.2138 10.0866 1.06859 11.6528C0.850783 14.1796 1.63127 16.5333 2.23025 18.0736C3.70047 21.8551 5.89673 25.3597 9.17297 29.1152C13.148 33.6409 17.9308 37.2148 23.3942 39.7329C25.4815 40.6761 28.2677 41.7924 31.3806 41.9827C31.5712 41.9914 31.7708 42 31.9523 42C34.0488 42 35.8094 41.2818 37.1889 39.854C37.1979 39.8367 37.2161 39.8281 37.2252 39.8108C37.6971 39.2656 38.2416 38.7724 38.8134 38.2445C39.2036 37.8897 39.6029 37.5176 39.9932 37.1282C40.8916 36.2369 41.3636 35.1985 41.3636 34.1342C41.3636 33.0612 40.8826 32.0314 39.9659 31.1661L34.9835 26.3981ZM38.2325 35.5101C38.2235 35.5101 38.2235 35.5187 38.2325 35.5101C37.8786 35.8735 37.5156 36.2023 37.1253 36.5658C36.5354 37.1023 35.9365 37.6647 35.3738 38.2964C34.4572 39.231 33.3772 39.6723 31.9614 39.6723C31.8253 39.6723 31.6801 39.6723 31.5439 39.6637C28.8485 39.4992 26.3437 38.4955 24.4651 37.6388C19.3284 35.2678 14.8179 31.9016 11.0697 27.6355C7.97501 24.079 5.90581 20.7907 4.53541 17.2602C3.6914 15.1055 3.38283 13.4268 3.51896 11.8432C3.60972 10.8308 4.01811 9.99138 4.77138 9.27315L7.8661 6.32237C8.3108 5.92431 8.78272 5.70798 9.24557 5.70798C9.81732 5.70798 10.2802 6.03681 10.5706 6.31371C10.5797 6.32237 10.5887 6.33102 10.5978 6.33967C11.1514 6.83291 11.6778 7.34346 12.2314 7.88862C12.5127 8.16553 12.8031 8.44243 13.0936 8.72799L15.5712 11.0904C16.5332 12.0076 16.5332 12.8556 15.5712 13.7729C15.308 14.0238 15.0539 14.2748 14.7907 14.5171C14.0283 15.2613 13.3023 15.9535 12.5127 16.6285C12.4946 16.6458 12.4764 16.6544 12.4674 16.6718C11.6869 17.4159 11.8321 18.1428 11.9954 18.6361C12.0045 18.662 12.0136 18.688 12.0227 18.7139C12.667 20.2023 13.5746 21.6042 14.954 23.2742L14.9631 23.2829C17.4679 26.225 20.1089 28.5182 23.0221 30.2748C23.3942 30.4998 23.7754 30.6815 24.1384 30.8546C24.4651 31.0103 24.7737 31.1574 25.0368 31.3132C25.0731 31.3305 25.1094 31.3565 25.1457 31.3738C25.4543 31.5209 25.7447 31.5901 26.0442 31.5901C26.7975 31.5901 27.2694 31.1401 27.4237 30.993L30.5275 28.0336C30.8361 27.7394 31.3261 27.3846 31.8979 27.3846C32.4606 27.3846 32.9234 27.7221 33.2047 28.0163C33.2138 28.0249 33.2138 28.0249 33.2229 28.0336L38.2235 32.8016C39.1582 33.6842 39.1582 34.5928 38.2325 35.5101Z" fill="white"/>
<path id="Vector_2" d="M24.238 10.753C26.6157 11.1337 28.7757 12.2067 30.5 13.8509C32.2244 15.495 33.3406 17.5545 33.749 19.8217C33.8489 20.3928 34.3662 20.7908 34.9561 20.7908C35.0287 20.7908 35.0922 20.7822 35.1648 20.7735C35.8364 20.6697 36.2811 20.064 36.1722 19.4236C35.6821 16.6805 34.3208 14.1797 32.2425 12.1981C30.1642 10.2165 27.5414 8.91847 24.6645 8.45119C23.9929 8.34735 23.3667 8.77136 23.2488 9.40305C23.1308 10.0347 23.5664 10.6491 24.238 10.753Z" fill="white"/>
<path id="Vector_3" d="M43.9503 19.086C43.1425 14.5689 40.91 10.4586 37.4795 7.18763C34.0489 3.91668 29.7381 1.78796 25.0007 1.01781C24.3382 0.905317 23.712 1.33798 23.594 1.96968C23.4851 2.61002 23.9298 3.2071 24.6014 3.3196C28.8306 4.00321 32.6876 5.9156 35.7551 8.83177C38.8226 11.7566 40.8192 15.4343 41.5362 19.4667C41.636 20.0378 42.1533 20.4359 42.7432 20.4359C42.8158 20.4359 42.8794 20.4272 42.952 20.4186C43.6145 20.3234 44.0682 19.7177 43.9503 19.086Z" fill="white"/>
</g>
</g>
</g>
<rect x="1" y="1" width="43" height="41" stroke="#262525"/>
</g>
<defs>
<clipPath id="clip0_116_114">
<rect x="1" y="1" width="43" height="41" fill="white"/>
</clipPath>
</defs>
</svg>
